<svg width="362" height="259" viewBox="0 0 362 259" fill="none" xmlns="http://www.w3.org/2000/svg">
<path opacity="0.2" d="M326.75 79.1993L339 76.8953V65.9127L326.75 63.8007C325.809 59.2886 324.024 55.0645 321.566 51.3205L328.593 41.0099L320.817 33.2338L310.66 40.4147C306.916 37.957 302.711 36.1906 298.18 35.2498L295.876 23H284.893L282.781 35.2498C278.269 36.1906 274.045 37.9762 270.301 40.4339L260.01 33.4066L252.234 41.1827L259.415 51.3397C256.957 55.0837 255.191 59.3078 254.25 63.8199L242 66.1239V77.1065L254.25 79.2185C255.191 83.7498 256.976 87.9547 259.434 91.6987L252.407 101.99L260.183 109.766L270.359 102.585C274.103 105.043 278.327 106.829 282.839 107.75L285.143 120H296.126L298.238 107.75C302.769 106.809 306.974 105.024 310.718 102.566L321.009 109.593L328.785 101.817L321.605 91.6603C324.043 87.9355 325.809 83.7306 326.75 79.1993ZM290.5 94.2524C277.943 94.2524 267.767 84.057 267.767 71.5192C267.767 58.9814 277.943 48.786 290.5 48.786C303.057 48.786 313.233 58.9622 313.233 71.5192C313.233 84.0762 303.057 94.2524 290.5 94.2524Z" fill="#84B5FF"/>
<path d="M62.5601 31.3201V133.79C62.5601 138.89 66.7001 143.03 71.8001 143.03H198.6C203.7 143.03 207.84 138.89 207.84 133.79V31.3201C207.84 26.2201 203.7 22.0801 198.6 22.0801H71.7901C66.6901 22.0901 62.5601 26.2201 62.5601 31.3201ZM198.73 138.29H135.2L72.0001 138C70.1101 138 68.2501 136.76 68.2501 134.87V30.2401C68.2501 28.3501 69.7801 26.8201 71.6701 26.8201H198.73C200.62 26.8201 202.15 28.3501 202.15 30.2401V134.87C202.15 136.76 200.62 138.29 198.73 138.29Z" fill="#66D6A0"/>
<path d="M340.91 141C329.36 141 320 150.36 320 161.91C320 173.46 329.36 182.82 340.91 182.82C352.46 182.82 361.82 173.46 361.82 161.91C361.82 150.36 352.46 141 340.91 141ZM340.91 177.61C332.23 177.61 325.2 170.58 325.2 161.9C325.2 153.22 332.23 146.19 340.91 146.19C349.59 146.19 356.62 153.22 356.62 161.9C356.62 170.58 349.59 177.61 340.91 177.61Z" fill="#66D6A0"/>
<path d="M295.67 79.81V212.8C295.67 216.22 292.9 218.99 289.48 218.99H86.68C83.26 218.99 80.49 216.22 80.49 212.8V79.81C80.49 71.92 86.89 65.51 94.79 65.51H281.37C289.27 65.51 295.67 71.92 295.67 79.81Z" fill="white" stroke="#84B5FF" stroke-miterlimit="10"/>
<path d="M295.67 79.81V80.41H80.49V79.81C80.49 71.92 86.89 65.51 94.79 65.51H281.37C289.27 65.51 295.67 71.92 295.67 79.81Z" fill="#84B5FF"/>
<path opacity="0.2" d="M213.55 91.0399H202.17C201.16 91.0399 200.34 90.2199 200.34 89.2099C200.34 88.1999 201.16 87.3799 202.17 87.3799H213.55C214.56 87.3799 215.38 88.1999 215.38 89.2099C215.38 90.2199 214.56 91.0399 213.55 91.0399Z" fill="#276ED8"/>
<path opacity="0.2" d="M235.06 91.0399H223.68C222.67 91.0399 221.85 90.2199 221.85 89.2099C221.85 88.1999 222.67 87.3799 223.68 87.3799H235.06C236.07 87.3799 236.89 88.1999 236.89 89.2099C236.9 90.2199 236.08 91.0399 235.06 91.0399Z" fill="#276ED8"/>
<path opacity="0.2" d="M256.91 91.0399H245.53C244.52 91.0399 243.7 90.2199 243.7 89.2099C243.7 88.1999 244.52 87.3799 245.53 87.3799H256.91C257.92 87.3799 258.74 88.1999 258.74 89.2099C258.74 90.2199 257.92 91.0399 256.91 91.0399Z" fill="#276ED8"/>
<path opacity="0.2" d="M278.42 91.0399H267.04C266.03 91.0399 265.21 90.2199 265.21 89.2099C265.21 88.1999 266.03 87.3799 267.04 87.3799H278.42C279.43 87.3799 280.25 88.1999 280.25 89.2099C280.26 90.2199 279.44 91.0399 278.42 91.0399Z" fill="#276ED8"/>
<path opacity="0.2" d="M255.72 119.58H207.9C206.97 119.58 206.22 118.83 206.22 117.9V112.13C206.22 111.2 206.97 110.45 207.9 110.45H255.72C256.65 110.45 257.4 111.2 257.4 112.13V117.9C257.4 118.82 256.65 119.58 255.72 119.58Z" fill="#276ED8"/>
<path opacity="0.2" d="M242.07 130.6H207.84C206.94 130.6 206.22 129.87 206.22 128.98C206.22 128.08 206.95 127.36 207.84 127.36H242.07C242.97 127.36 243.69 128.09 243.69 128.98C243.69 129.87 242.97 130.6 242.07 130.6Z" fill="#276ED8"/>
<path opacity="0.2" d="M276.32 138.44H207.84C206.94 138.44 206.22 137.71 206.22 136.82C206.22 135.92 206.95 135.2 207.84 135.2H276.32C277.22 135.2 277.94 135.93 277.94 136.82C277.94 137.71 277.22 138.44 276.32 138.44Z" fill="#276ED8"/>
<path opacity="0.2" d="M276.32 146.28H207.84C206.94 146.28 206.22 145.55 206.22 144.66C206.22 143.76 206.95 143.04 207.84 143.04H276.32C277.22 143.04 277.94 143.77 277.94 144.66C277.94 145.55 277.22 146.28 276.32 146.28Z" fill="#276ED8"/>
<path opacity="0.2" d="M276.099 154.24H207.619C206.719 154.24 205.999 153.51 205.999 152.62C205.999 151.72 206.729 151 207.619 151H276.099C276.999 151 277.719 151.73 277.719 152.62C277.719 153.51 276.999 154.24 276.099 154.24Z" fill="#276ED8"/>
<path opacity="0.1" d="M295.67 190.34V212.8C295.67 216.22 292.9 218.99 289.48 218.99H86.68C83.26 218.99 80.49 216.22 80.49 212.8V190.34H295.67Z" fill="#84B5FF"/>
<path d="M262.99 73.65C262.99 74.68 262.16 75.51 261.13 75.51C260.1 75.51 259.27 74.68 259.27 73.65C259.27 72.62 260.1 71.79 261.13 71.79C262.15 71.79 262.99 72.62 262.99 73.65Z" fill="#84B5FF"/>
<path d="M273.17 73.65C273.17 74.68 272.34 75.51 271.31 75.51C270.28 75.51 269.45 74.68 269.45 73.65C269.45 72.62 270.28 71.79 271.31 71.79C272.33 71.79 273.17 72.62 273.17 73.65Z" fill="#84B5FF"/>
<path d="M282.9 73.65C282.9 74.68 282.07 75.51 281.04 75.51C280.01 75.51 279.18 74.68 279.18 73.65C279.18 72.62 280.01 71.79 281.04 71.79C282.07 71.79 282.9 72.62 282.9 73.65Z" fill="#84B5FF"/>
<path opacity="0.1" d="M296 80.2553V212.829C296 216.239 293.232 219 289.815 219H87.1848C83.7677 219 81 216.239 81 212.829V80.2553C81 72.39 87.3946 66 95.288 66H281.712C289.605 66 296 72.39 296 80.2553Z" stroke="#276ED8" stroke-miterlimit="10"/>
<g filter="url(#filter0_d_480_5554)">
<path d="M187.63 97.58V159.43C187.63 160.86 186.47 162.01 185.05 162.01H102.58C101.16 162.01 100 160.86 100 159.43V97.58C100 96.15 101.16 95 102.58 95H185.05C186.48 95.01 187.63 96.16 187.63 97.58Z" fill="#06B25F"/>
</g>
<path d="M187.63 136.99V159.43C187.63 160.86 186.47 162.01 185.05 162.01H102.58C101.16 162.01 100 160.86 100 159.43V137.84C100 137.84 114.07 113.58 124.05 113.58C136.49 113.58 143.56 141.89 149.74 141.89C155.92 141.89 163.97 122.42 172.15 122.42C177.07 122.41 183.37 130.5 187.63 136.99Z" fill="#66D6A0"/>
<path d="M176.38 108.87C176.38 112.02 173.82 114.58 170.67 114.58C167.52 114.58 164.96 112.02 164.96 108.87C164.96 105.72 167.52 103.16 170.67 103.16C173.83 103.17 176.38 105.72 176.38 108.87Z" fill="#66D6A0"/>
<g filter="url(#filter1_d_480_5554)">
<path d="M243.88 10.01V52.38C243.88 54.6 242.08 56.39 239.87 56.39H177.87C175.65 56.39 173.86 54.59 173.86 52.38V10.01C173.86 7.79 175.66 6 177.87 6H239.87C242.08 6 243.88 7.8 243.88 10.01Z" fill="#84B5FF"/>
</g>
<path d="M243.88 46.7202V52.3902C243.88 54.6102 242.08 56.4002 239.87 56.4002H177.87C175.65 56.4002 173.86 54.6002 173.86 52.3902V46.7202H243.88Z" fill="#276ED8"/>
<path opacity="0.8" d="M211.03 52.03C211.03 52.5 211.17 52.93 211.42 53.3H180.1C179.4 53.3 178.83 52.74 178.83 52.03C178.83 51.33 179.4 50.76 180.1 50.76H211.42C211.18 51.13 211.03 51.56 211.03 52.03Z" fill="#84B5FF"/>
<path d="M221.86 52.03C221.86 52.73 221.29 53.3 220.59 53.3H211.43C211.18 52.93 211.04 52.5 211.04 52.03C211.04 51.56 211.18 51.13 211.43 50.76H220.59C221.28 50.77 221.86 51.34 221.86 52.03Z" fill="#84B5FF"/>
<path d="M215.53 52.03C215.53 52.5 215.39 52.93 215.14 53.3C214.74 53.89 214.06 54.28 213.28 54.28C212.51 54.28 211.83 53.89 211.43 53.3C211.18 52.93 211.04 52.5 211.04 52.03C211.04 51.56 211.18 51.13 211.43 50.76C211.83 50.17 212.51 49.78 213.28 49.78C214.06 49.78 214.74 50.17 215.14 50.76C215.38 51.13 215.53 51.56 215.53 52.03Z" fill="white"/>
<path d="M214.38 52.0302C214.38 52.6402 213.89 53.1302 213.28 53.1302C212.67 53.1302 212.18 52.6402 212.18 52.0302C212.18 51.4202 212.67 50.9302 213.28 50.9302C213.89 50.9302 214.38 51.4202 214.38 52.0302Z" fill="#84B5FF"/>
<path d="M231.3 53.1501V51.0401C231.3 50.7601 231.59 50.5801 231.84 50.7101L233.95 51.7701C234.22 51.9101 234.22 52.3001 233.95 52.4301L231.84 53.4901C231.59 53.6101 231.3 53.4301 231.3 53.1501Z" fill="#84B5FF"/>
<path d="M236.99 52.74V51.45C236.99 51.28 237.13 51.17 237.25 51.25L238.27 51.9C238.4 51.98 238.4 52.22 238.27 52.31L237.25 52.96C237.13 53.02 236.99 52.91 236.99 52.74Z" fill="#84B5FF"/>
<path d="M238.37 52.74V51.45C238.37 51.28 238.51 51.17 238.63 51.25L239.65 51.9C239.78 51.98 239.78 52.22 239.65 52.31L238.63 52.96C238.51 53.02 238.37 52.91 238.37 52.74Z" fill="#84B5FF"/>
<path d="M228.7 52.74V51.45C228.7 51.28 228.56 51.17 228.44 51.25L227.42 51.9C227.29 51.98 227.29 52.22 227.42 52.31L228.44 52.96C228.56 53.02 228.7 52.91 228.7 52.74Z" fill="#84B5FF"/>
<path d="M227.32 52.74V51.45C227.32 51.28 227.18 51.17 227.06 51.25L226.04 51.9C225.91 51.98 225.91 52.22 226.04 52.31L227.06 52.96C227.18 53.02 227.32 52.91 227.32 52.74Z" fill="#84B5FF"/>
<path d="M221.009 29.8751C222.602 23.1687 218.456 16.4414 211.749 14.8492C205.043 13.2571 198.315 17.403 196.723 24.1094C195.131 30.8158 199.277 37.5431 205.983 39.1353C212.69 40.7275 219.417 36.5815 221.009 29.8751Z" fill="#FBF8FF"/>
<path d="M205.57 30.8401V23.1601C205.57 22.3101 206.51 21.8001 207.22 22.2601L213.12 26.1001C213.77 26.5201 213.77 27.4701 213.12 27.8901L207.22 31.7301C206.51 32.2001 205.57 31.6901 205.57 30.8401Z" fill="#276ED8"/>
<g filter="url(#filter2_d_480_5554)">
<path d="M113.918 218.08L122 216.56V209.314L113.918 207.92C113.297 204.943 112.119 202.156 110.497 199.686L115.134 192.883L110.003 187.752L103.302 192.49C100.831 190.869 98.057 189.703 95.0673 189.082L93.5471 181H86.3008L84.9074 189.082C81.9303 189.703 79.1433 190.881 76.673 192.503L69.8828 187.866L64.7522 192.997L69.4901 199.698C67.8686 202.169 66.7031 204.956 66.0823 207.933L58 209.453V216.699L66.0823 218.093C66.7031 221.082 67.8812 223.857 69.5028 226.327L64.8662 233.117L69.9968 238.248L76.711 233.51C79.1813 235.131 81.9683 236.31 84.9454 236.918L86.4655 245H93.7118L95.1053 236.918C98.095 236.297 100.869 235.119 103.34 233.497L110.13 238.134L115.26 233.003L110.523 226.302C112.131 223.844 113.297 221.07 113.918 218.08ZM90 228.012C81.715 228.012 75.0008 221.285 75.0008 213.013C75.0008 204.74 81.715 198.013 90 198.013C98.285 198.013 104.999 204.728 104.999 213.013C104.999 221.298 98.285 228.012 90 228.012Z" fill="#84B5FF"/>
</g>
<g filter="url(#filter3_d_480_5554)">
<path d="M47.687 179.322L53.5437 181.375L56.2811 176.649L51.5225 172.688C52.2387 170.508 52.5252 168.233 52.3978 166.022L58 163.333L56.5835 158.051L50.4244 158.623C49.4217 156.635 48.0371 154.821 46.3342 153.294L48.3873 147.439L43.6605 144.702L39.6976 149.459C37.5172 148.743 35.2414 148.457 33.0292 148.584L30.3395 143L25.0557 144.416L25.6287 150.589C23.6393 151.591 21.8249 152.975 20.2971 154.678L14.4403 152.625L11.7029 157.351L16.4615 161.312C15.7454 163.508 15.4589 165.751 15.5862 167.978L10 170.667L11.4164 175.949L17.5915 175.377C18.5941 177.365 19.9629 179.179 21.6817 180.706L19.6286 186.561L24.3554 189.298L28.3183 184.541C30.5146 185.257 32.7586 185.543 34.9868 185.416L37.6764 191L42.9602 189.584L42.3873 183.411C44.3448 182.425 46.1591 181.056 47.687 179.322ZM28.3183 176.793C22.9072 173.674 21.061 166.753 24.1804 161.344C27.2997 155.935 34.2228 154.089 39.6339 157.207C45.0451 160.326 46.8912 167.247 43.7719 172.656C40.6525 178.065 33.7295 179.911 28.3183 176.793Z" fill="#84B5FF"/>
</g>
<defs>
<filter id="filter0_d_480_5554" x="90" y="89" width="107.63" height="87.01" filterUnits="userSpaceOnUse" color-interpolation-filters="sRGB">
<feFlood flood-opacity="0" result="BackgroundImageFix"/>
<feColorMatrix in="SourceAlpha" type="matrix" values="0 0 0 0 0 0 0 0 0 0 0 0 0 0 0 0 0 0 127 0" result="hardAlpha"/>
<feOffset dy="4"/>
<feGaussianBlur stdDeviation="5"/>
<feColorMatrix type="matrix" values="0 0 0 0 0.0901961 0 0 0 0 0.0392157 0 0 0 0 0.396078 0 0 0 0.25 0"/>
<feBlend mode="normal" in2="BackgroundImageFix" result="effect1_dropShadow_480_5554"/>
<feBlend mode="normal" in="SourceGraphic" in2="effect1_dropShadow_480_5554" result="shape"/>
</filter>
<filter id="filter1_d_480_5554" x="163.86" y="0" width="90.02" height="70.3899" filterUnits="userSpaceOnUse" color-interpolation-filters="sRGB">
<feFlood flood-opacity="0" result="BackgroundImageFix"/>
<feColorMatrix in="SourceAlpha" type="matrix" values="0 0 0 0 0 0 0 0 0 0 0 0 0 0 0 0 0 0 127 0" result="hardAlpha"/>
<feOffset dy="4"/>
<feGaussianBlur stdDeviation="5"/>
<feColorMatrix type="matrix" values="0 0 0 0 0.0901961 0 0 0 0 0.0392157 0 0 0 0 0.396078 0 0 0 0.25 0"/>
<feBlend mode="normal" in2="BackgroundImageFix" result="effect1_dropShadow_480_5554"/>
<feBlend mode="normal" in="SourceGraphic" in2="effect1_dropShadow_480_5554" result="shape"/>
</filter>
<filter id="filter2_d_480_5554" x="48" y="175" width="84" height="84" filterUnits="userSpaceOnUse" color-interpolation-filters="sRGB">
<feFlood flood-opacity="0" result="BackgroundImageFix"/>
<feColorMatrix in="SourceAlpha" type="matrix" values="0 0 0 0 0 0 0 0 0 0 0 0 0 0 0 0 0 0 127 0" result="hardAlpha"/>
<feOffset dy="4"/>
<feGaussianBlur stdDeviation="5"/>
<feColorMatrix type="matrix" values="0 0 0 0 0.0885677 0 0 0 0 0.0395834 0 0 0 0 0.395833 0 0 0 0.25 0"/>
<feBlend mode="normal" in2="BackgroundImageFix" result="effect1_dropShadow_480_5554"/>
<feBlend mode="normal" in="SourceGraphic" in2="effect1_dropShadow_480_5554" result="shape"/>
</filter>
<filter id="filter3_d_480_5554" x="0" y="137" width="68" height="68" filterUnits="userSpaceOnUse" color-interpolation-filters="sRGB">
<feFlood flood-opacity="0" result="BackgroundImageFix"/>
<feColorMatrix in="SourceAlpha" type="matrix" values="0 0 0 0 0 0 0 0 0 0 0 0 0 0 0 0 0 0 127 0" result="hardAlpha"/>
<feOffset dy="4"/>
<feGaussianBlur stdDeviation="5"/>
<feColorMatrix type="matrix" values="0 0 0 0 0.0885677 0 0 0 0 0.0395834 0 0 0 0 0.395833 0 0 0 0.25 0"/>
<feBlend mode="normal" in2="BackgroundImageFix" result="effect1_dropShadow_480_5554"/>
<feBlend mode="normal" in="SourceGraphic" in2="effect1_dropShadow_480_5554" result="shape"/>
</filter>
</defs>
</svg>
